<svg width="408" height="220" viewBox="0 0 408 220" fill="none" xmlns="http://www.w3.org/2000/svg">
<g filter="url(#filter0_d_1_4939)">
<rect x="20" y="2" width="368" height="180" fill="#BEEBFF"/>
</g>
<path d="M46.3864 83.182V87.182H45.1364V83.182H46.3864ZM49.2955 83.182V87.182H48.0455V83.182H49.2955ZM51.7022 94.8184V83.182H53.1113V93.5684H58.5204V94.8184H51.7022ZM63.9059 95.0002C63.118 95.0002 62.4267 94.8127 61.832 94.4377C61.2411 94.0627 60.779 93.5381 60.4456 92.8638C60.1161 92.1896 59.9513 91.4017 59.9513 90.5002C59.9513 89.5911 60.1161 88.7975 60.4456 88.1195C60.779 87.4415 61.2411 86.915 61.832 86.54C62.4267 86.165 63.118 85.9775 63.9059 85.9775C64.6937 85.9775 65.3831 86.165 65.974 86.54C66.5687 86.915 67.0309 87.4415 67.3604 88.1195C67.6937 88.7975 67.8604 89.5911 67.8604 90.5002C67.8604 91.4017 67.6937 92.1896 67.3604 92.8638C67.0309 93.5381 66.5687 94.0627 65.974 94.4377C65.3831 94.8127 64.6937 95.0002 63.9059 95.0002ZM63.9059 93.7956C64.5043 93.7956 64.9968 93.6422 65.3831 93.3354C65.7695 93.0286 66.0555 92.6252 66.2411 92.1252C66.4267 91.6252 66.5195 91.0835 66.5195 90.5002C66.5195 89.9168 66.4267 89.3733 66.2411 88.8695C66.0555 88.3657 65.7695 87.9585 65.3831 87.6479C64.9968 87.3373 64.5043 87.182 63.9059 87.182C63.3074 87.182 62.8149 87.3373 62.4286 87.6479C62.0422 87.9585 61.7562 88.3657 61.5706 88.8695C61.385 89.3733 61.2922 89.9168 61.2922 90.5002C61.2922 91.0835 61.385 91.6252 61.5706 92.1252C61.7562 92.6252 62.0422 93.0286 62.4286 93.3354C62.8149 93.6422 63.3074 93.7956 63.9059 93.7956ZM69.7473 94.8184V86.0911H71.0427V87.4093H71.1336C71.2927 86.9775 71.5806 86.6271 71.9973 86.3581C72.4139 86.0892 72.8836 85.9547 73.4064 85.9547C73.5048 85.9547 73.628 85.9566 73.7757 85.9604C73.9234 85.9642 74.0352 85.9699 74.1109 85.9775V87.3411C74.0655 87.3297 73.9613 87.3127 73.7984 87.2899C73.6393 87.2634 73.4708 87.2502 73.2927 87.2502C72.8685 87.2502 72.4897 87.3392 72.1564 87.5172C71.8268 87.6915 71.5655 87.9339 71.3723 88.2445C71.1829 88.5513 71.0882 88.9017 71.0882 89.2956V94.8184H69.7473ZM78.9339 95.0002C78.093 95.0002 77.3676 94.8146 76.7577 94.4434C76.1517 94.0684 75.6839 93.5456 75.3543 92.8752C75.0286 92.2009 74.8657 91.4168 74.8657 90.5229C74.8657 89.629 75.0286 88.8411 75.3543 88.1593C75.6839 87.4737 76.1422 86.9396 76.7293 86.557C77.3202 86.1706 78.0096 85.9775 78.7975 85.9775C79.252 85.9775 79.7009 86.0532 80.1441 86.2047C80.5873 86.3562 80.9907 86.6025 81.3543 86.9434C81.718 87.2805 82.0077 87.7275 82.2236 88.2843C82.4395 88.8411 82.5475 89.5267 82.5475 90.3411V90.9093H75.8202V89.7502H81.1839C81.1839 89.2578 81.0854 88.8184 80.8884 88.432C80.6952 88.0456 80.4187 87.7407 80.0589 87.5172C79.7028 87.2937 79.2823 87.182 78.7975 87.182C78.2634 87.182 77.8013 87.3146 77.4111 87.5797C77.0248 87.8411 76.7274 88.182 76.5191 88.6024C76.3108 89.0229 76.2066 89.4737 76.2066 89.9547V90.7275C76.2066 91.3865 76.3202 91.9453 76.5475 92.4036C76.7786 92.8581 77.0986 93.2047 77.5077 93.4434C77.9168 93.6782 78.3922 93.7956 78.9339 93.7956C79.2861 93.7956 79.6043 93.7464 79.8884 93.6479C80.1763 93.5456 80.4244 93.3941 80.6327 93.1934C80.8411 92.9888 81.002 92.735 81.1157 92.432L82.4111 92.7956C82.2748 93.235 82.0456 93.6214 81.7236 93.9547C81.4017 94.2843 81.0039 94.5418 80.5305 94.7275C80.057 94.9093 79.5248 95.0002 78.9339 95.0002ZM84.4273 94.8184V86.0911H85.7227V87.4547H85.8364C86.0182 86.9888 86.3117 86.6271 86.717 86.3695C87.1223 86.1081 87.6091 85.9775 88.1773 85.9775C88.753 85.9775 89.2322 86.1081 89.6148 86.3695C90.0011 86.6271 90.3023 86.9888 90.5182 87.4547H90.6091C90.8326 87.004 91.1678 86.646 91.6148 86.3809C92.0617 86.1119 92.5977 85.9775 93.2227 85.9775C94.003 85.9775 94.6413 86.2218 95.1375 86.7104C95.6337 87.1953 95.8818 87.9509 95.8818 88.9774V94.8184H94.5409V88.9774C94.5409 88.3335 94.3648 87.8733 94.0125 87.5968C93.6602 87.3203 93.2455 87.182 92.7682 87.182C92.1545 87.182 91.6792 87.3676 91.342 87.7388C91.0049 88.1062 90.8364 88.5721 90.8364 89.1365V94.8184H89.4727V88.8411C89.4727 88.3449 89.3117 87.9453 88.9898 87.6422C88.6678 87.3354 88.253 87.182 87.7455 87.182C87.397 87.182 87.0712 87.2748 86.7682 87.4604C86.4689 87.646 86.2265 87.9036 86.0409 88.2331C85.8591 88.5589 85.7682 88.9358 85.7682 89.3638V94.8184H84.4273ZM102.514 94.8184V86.0911H103.854V94.8184H102.514ZM103.195 84.6365C102.934 84.6365 102.709 84.5475 102.519 84.3695C102.334 84.1915 102.241 83.9775 102.241 83.7275C102.241 83.4775 102.334 83.2634 102.519 83.0854C102.709 82.9074 102.934 82.8184 103.195 82.8184C103.457 82.8184 103.68 82.9074 103.866 83.0854C104.055 83.2634 104.15 83.4775 104.15 83.7275C104.15 83.9775 104.055 84.1915 103.866 84.3695C103.68 84.5475 103.457 84.6365 103.195 84.6365ZM106.15 98.0911V86.0911H107.446V87.4774H107.605C107.703 87.3259 107.84 87.1328 108.014 86.8979C108.192 86.6593 108.446 86.4471 108.775 86.2615C109.109 86.0721 109.559 85.9775 110.128 85.9775C110.863 85.9775 111.51 86.1612 112.071 86.5286C112.631 86.896 113.069 87.4168 113.383 88.0911C113.698 88.7653 113.855 89.5608 113.855 90.4775C113.855 91.4017 113.698 92.2028 113.383 92.8809C113.069 93.5551 112.633 94.0778 112.077 94.449C111.52 94.8165 110.878 95.0002 110.15 95.0002C109.59 95.0002 109.141 94.9074 108.804 94.7218C108.467 94.5324 108.207 94.3184 108.025 94.0797C107.844 93.8373 107.703 93.6365 107.605 93.4775H107.491V98.0911H106.15ZM107.469 90.4547C107.469 91.1138 107.565 91.6953 107.758 92.199C107.952 92.699 108.234 93.0911 108.605 93.3752C108.976 93.6555 109.431 93.7956 109.969 93.7956C110.529 93.7956 110.997 93.6479 111.372 93.3525C111.751 93.0532 112.035 92.6517 112.224 92.1479C112.417 91.6403 112.514 91.0759 112.514 90.4547C112.514 89.8411 112.419 89.2881 112.23 88.7956C112.044 88.2994 111.762 87.9074 111.383 87.6195C111.008 87.3278 110.537 87.182 109.969 87.182C109.423 87.182 108.965 87.3203 108.594 87.5968C108.222 87.8695 107.942 88.2521 107.753 88.7445C107.563 89.2331 107.469 89.8032 107.469 90.4547ZM121.922 88.0456L120.718 88.3865C120.642 88.1858 120.53 87.9907 120.382 87.8013C120.239 87.6081 120.042 87.449 119.792 87.324C119.542 87.199 119.221 87.1365 118.831 87.1365C118.297 87.1365 117.852 87.2596 117.496 87.5059C117.144 87.7483 116.968 88.057 116.968 88.432C116.968 88.7653 117.089 89.0286 117.331 89.2218C117.574 89.415 117.953 89.5759 118.468 89.7047L119.763 90.0229C120.543 90.2123 121.125 90.5021 121.507 90.8922C121.89 91.2786 122.081 91.7767 122.081 92.3865C122.081 92.8865 121.937 93.3335 121.649 93.7275C121.365 94.1214 120.968 94.432 120.456 94.6593C119.945 94.8865 119.35 95.0002 118.672 95.0002C117.782 95.0002 117.045 94.807 116.462 94.4206C115.879 94.0343 115.509 93.4699 115.354 92.7275L116.627 92.4093C116.748 92.879 116.977 93.2312 117.314 93.4661C117.655 93.7009 118.1 93.8184 118.649 93.8184C119.274 93.8184 119.771 93.6858 120.138 93.4206C120.509 93.1517 120.695 92.8297 120.695 92.4547C120.695 92.1517 120.589 91.8979 120.377 91.6934C120.165 91.485 119.839 91.3297 119.399 91.2275L117.945 90.8865C117.146 90.6971 116.559 90.4036 116.184 90.0059C115.812 89.6043 115.627 89.1025 115.627 88.5002C115.627 88.0078 115.765 87.5721 116.042 87.1934C116.322 86.8146 116.703 86.5172 117.184 86.3013C117.668 86.0854 118.218 85.9775 118.831 85.9775C119.695 85.9775 120.373 86.1668 120.865 86.5456C121.362 86.9244 121.714 87.4244 121.922 88.0456ZM129.44 91.2502V86.0911H130.781V94.8184H129.44V93.3411H129.349C129.144 93.7843 128.826 94.1612 128.394 94.4718C127.963 94.7786 127.417 94.932 126.758 94.932C126.213 94.932 125.728 94.8127 125.303 94.574C124.879 94.3316 124.546 93.968 124.303 93.4831C124.061 92.9945 123.94 92.379 123.94 91.6365V86.0911H125.281V91.5456C125.281 92.182 125.459 92.6896 125.815 93.0684C126.175 93.4471 126.633 93.6365 127.19 93.6365C127.523 93.6365 127.862 93.5513 128.207 93.3809C128.555 93.2104 128.847 92.949 129.082 92.5968C129.32 92.2445 129.44 91.7956 129.44 91.2502ZM133.077 94.8184V86.0911H134.372V87.4547H134.486C134.668 86.9888 134.961 86.6271 135.366 86.3695C135.772 86.1081 136.258 85.9775 136.827 85.9775C137.402 85.9775 137.882 86.1081 138.264 86.3695C138.651 86.6271 138.952 86.9888 139.168 87.4547H139.258C139.482 87.004 139.817 86.646 140.264 86.3809C140.711 86.1119 141.247 85.9775 141.872 85.9775C142.652 85.9775 143.291 86.2218 143.787 86.7104C144.283 87.1953 144.531 87.9509 144.531 88.9774V94.8184H143.19V88.9774C143.19 88.3335 143.014 87.8733 142.662 87.5968C142.31 87.3203 141.895 87.182 141.418 87.182C140.804 87.182 140.329 87.3676 139.991 87.7388C139.654 88.1062 139.486 88.5721 139.486 89.1365V94.8184H138.122V88.8411C138.122 88.3449 137.961 87.9453 137.639 87.6422C137.317 87.3354 136.902 87.182 136.395 87.182C136.046 87.182 135.721 87.2748 135.418 87.4604C135.118 87.646 134.876 87.9036 134.69 88.2331C134.508 88.5589 134.418 88.9358 134.418 89.3638V94.8184H133.077ZM154.458 95.0002C153.731 95.0002 153.089 94.8165 152.532 94.449C151.975 94.0778 151.54 93.5551 151.225 92.8809C150.911 92.2028 150.754 91.4017 150.754 90.4775C150.754 89.5608 150.911 88.7653 151.225 88.0911C151.54 87.4168 151.977 86.896 152.538 86.5286C153.099 86.1612 153.746 85.9775 154.481 85.9775C155.049 85.9775 155.498 86.0721 155.828 86.2615C156.161 86.4471 156.415 86.6593 156.589 86.8979C156.767 87.1328 156.905 87.3259 157.004 87.4774H157.117V83.182H158.458V94.8184H157.163V93.4775H157.004C156.905 93.6365 156.765 93.8373 156.583 94.0797C156.402 94.3184 156.142 94.5324 155.805 94.7218C155.468 94.9074 155.019 95.0002 154.458 95.0002ZM154.64 93.7956C155.178 93.7956 155.633 93.6555 156.004 93.3752C156.375 93.0911 156.657 92.699 156.85 92.199C157.044 91.6953 157.14 91.1138 157.14 90.4547C157.14 89.8032 157.045 89.2331 156.856 88.7445C156.667 88.2521 156.386 87.8695 156.015 87.5968C155.644 87.3203 155.186 87.182 154.64 87.182C154.072 87.182 153.599 87.3278 153.22 87.6195C152.845 87.9074 152.563 88.2994 152.373 88.7956C152.188 89.2881 152.095 89.8411 152.095 90.4547C152.095 91.0759 152.189 91.6403 152.379 92.1479C152.572 92.6517 152.856 93.0532 153.231 93.3525C153.61 93.6479 154.08 93.7956 154.64 93.7956ZM164.486 95.0002C163.698 95.0002 163.007 94.8127 162.412 94.4377C161.821 94.0627 161.359 93.5381 161.026 92.8638C160.696 92.1896 160.531 91.4017 160.531 90.5002C160.531 89.5911 160.696 88.7975 161.026 88.1195C161.359 87.4415 161.821 86.915 162.412 86.54C163.007 86.165 163.698 85.9775 164.486 85.9775C165.274 85.9775 165.963 86.165 166.554 86.54C167.149 86.915 167.611 87.4415 167.94 88.1195C168.274 88.7975 168.44 89.5911 168.44 90.5002C168.44 91.4017 168.274 92.1896 167.94 92.8638C167.611 93.5381 167.149 94.0627 166.554 94.4377C165.963 94.8127 165.274 95.0002 164.486 95.0002ZM164.486 93.7956C165.084 93.7956 165.577 93.6422 165.963 93.3354C166.349 93.0286 166.635 92.6252 166.821 92.1252C167.007 91.6252 167.099 91.0835 167.099 90.5002C167.099 89.9168 167.007 89.3733 166.821 88.8695C166.635 88.3657 166.349 87.9585 165.963 87.6479C165.577 87.3373 165.084 87.182 164.486 87.182C163.887 87.182 163.395 87.3373 163.009 87.6479C162.622 87.9585 162.336 88.3657 162.151 88.8695C161.965 89.3733 161.872 89.9168 161.872 90.5002C161.872 91.0835 161.965 91.6252 162.151 92.1252C162.336 92.6252 162.622 93.0286 163.009 93.3354C163.395 93.6422 163.887 93.7956 164.486 93.7956ZM171.668 83.182V94.8184H170.327V83.182H171.668ZM177.51 95.0002C176.722 95.0002 176.03 94.8127 175.436 94.4377C174.845 94.0627 174.383 93.5381 174.049 92.8638C173.72 92.1896 173.555 91.4017 173.555 90.5002C173.555 89.5911 173.72 88.7975 174.049 88.1195C174.383 87.4415 174.845 86.915 175.436 86.54C176.03 86.165 176.722 85.9775 177.51 85.9775C178.297 85.9775 178.987 86.165 179.578 86.54C180.172 86.915 180.635 87.4415 180.964 88.1195C181.297 88.7975 181.464 89.5911 181.464 90.5002C181.464 91.4017 181.297 92.1896 180.964 92.8638C180.635 93.5381 180.172 94.0627 179.578 94.4377C178.987 94.8127 178.297 95.0002 177.51 95.0002ZM177.51 93.7956C178.108 93.7956 178.601 93.6422 178.987 93.3354C179.373 93.0286 179.659 92.6252 179.845 92.1252C180.03 91.6252 180.123 91.0835 180.123 90.5002C180.123 89.9168 180.03 89.3733 179.845 88.8695C179.659 88.3657 179.373 87.9585 178.987 87.6479C178.601 87.3373 178.108 87.182 177.51 87.182C176.911 87.182 176.419 87.3373 176.032 87.6479C175.646 87.9585 175.36 88.3657 175.174 88.8695C174.989 89.3733 174.896 89.9168 174.896 90.5002C174.896 91.0835 174.989 91.6252 175.174 92.1252C175.36 92.6252 175.646 93.0286 176.032 93.3354C176.419 93.6422 176.911 93.7956 177.51 93.7956ZM183.351 94.8184V86.0911H184.646V87.4093H184.737C184.896 86.9775 185.184 86.6271 185.601 86.3581C186.018 86.0892 186.487 85.9547 187.01 85.9547C187.109 85.9547 187.232 85.9566 187.379 85.9604C187.527 85.9642 187.639 85.9699 187.715 85.9775V87.3411C187.669 87.3297 187.565 87.3127 187.402 87.2899C187.243 87.2634 187.075 87.2502 186.896 87.2502C186.472 87.2502 186.093 87.3392 185.76 87.5172C185.431 87.6915 185.169 87.9339 184.976 88.2445C184.787 88.5513 184.692 88.9017 184.692 89.2956V94.8184H183.351ZM199.666 88.0456L198.461 88.3865C198.386 88.1858 198.274 87.9907 198.126 87.8013C197.982 87.6081 197.785 87.449 197.535 87.324C197.285 87.199 196.965 87.1365 196.575 87.1365C196.041 87.1365 195.596 87.2596 195.24 87.5059C194.888 87.7483 194.711 88.057 194.711 88.432C194.711 88.7653 194.833 89.0286 195.075 89.2218C195.317 89.415 195.696 89.5759 196.211 89.7047L197.507 90.0229C198.287 90.2123 198.869 90.5021 199.251 90.8922C199.634 91.2786 199.825 91.7767 199.825 92.3865C199.825 92.8865 199.681 93.3335 199.393 93.7275C199.109 94.1214 198.711 94.432 198.2 94.6593C197.689 94.8865 197.094 95.0002 196.416 95.0002C195.526 95.0002 194.789 94.807 194.206 94.4206C193.622 94.0343 193.253 93.4699 193.098 92.7275L194.371 92.4093C194.492 92.879 194.721 93.2312 195.058 93.4661C195.399 93.7009 195.844 93.8184 196.393 93.8184C197.018 93.8184 197.514 93.6858 197.882 93.4206C198.253 93.1517 198.439 92.8297 198.439 92.4547C198.439 92.1517 198.333 91.8979 198.121 91.6934C197.908 91.485 197.583 91.3297 197.143 91.2275L195.689 90.8865C194.889 90.6971 194.302 90.4036 193.927 90.0059C193.556 89.6043 193.371 89.1025 193.371 88.5002C193.371 88.0078 193.509 87.5721 193.785 87.1934C194.066 86.8146 194.446 86.5172 194.927 86.3013C195.412 86.0854 195.961 85.9775 196.575 85.9775C197.439 85.9775 198.117 86.1668 198.609 86.5456C199.105 86.9244 199.458 87.4244 199.666 88.0456ZM201.684 94.8184V86.0911H203.024V94.8184H201.684ZM202.365 84.6365C202.104 84.6365 201.879 84.5475 201.689 84.3695C201.504 84.1915 201.411 83.9775 201.411 83.7275C201.411 83.4775 201.504 83.2634 201.689 83.0854C201.879 82.9074 202.104 82.8184 202.365 82.8184C202.627 82.8184 202.85 82.9074 203.036 83.0854C203.225 83.2634 203.32 83.4775 203.32 83.7275C203.32 83.9775 203.225 84.1915 203.036 84.3695C202.85 84.5475 202.627 84.6365 202.365 84.6365ZM209.116 86.0911V87.2274H204.593V86.0911H209.116ZM205.911 84.0002H207.252V92.3184C207.252 92.6971 207.307 92.9812 207.417 93.1706C207.531 93.3562 207.675 93.4812 207.849 93.5456C208.027 93.6062 208.214 93.6365 208.411 93.6365C208.559 93.6365 208.68 93.629 208.775 93.6138C208.87 93.5949 208.945 93.5797 209.002 93.5684L209.275 94.7729C209.184 94.807 209.057 94.8411 208.894 94.8752C208.731 94.9131 208.525 94.932 208.275 94.932C207.896 94.932 207.525 94.8506 207.161 94.6877C206.801 94.5248 206.502 94.2767 206.264 93.9434C206.029 93.61 205.911 93.1896 205.911 92.682V84.0002ZM217.881 95.0229C217.328 95.0229 216.826 94.9187 216.375 94.7104C215.925 94.4983 215.567 94.1934 215.302 93.7956C215.036 93.3941 214.904 92.9093 214.904 92.3411C214.904 91.8411 215.002 91.4358 215.199 91.1252C215.396 90.8108 215.659 90.5646 215.989 90.3865C216.319 90.2085 216.682 90.0759 217.08 89.9888C217.481 89.8979 217.885 89.8259 218.29 89.7729C218.82 89.7047 219.25 89.6536 219.58 89.6195C219.913 89.5816 220.156 89.5191 220.307 89.432C220.463 89.3449 220.54 89.1934 220.54 88.9774V88.932C220.54 88.3714 220.387 87.9358 220.08 87.6252C219.777 87.3146 219.317 87.1593 218.699 87.1593C218.059 87.1593 217.557 87.2994 217.194 87.5797C216.83 87.86 216.574 88.1593 216.427 88.4774L215.154 88.0229C215.381 87.4926 215.684 87.0797 216.063 86.7843C216.445 86.485 216.862 86.2767 217.313 86.1593C217.767 86.0381 218.214 85.9775 218.654 85.9775C218.934 85.9775 219.256 86.0115 219.62 86.0797C219.987 86.1441 220.341 86.2786 220.682 86.4831C221.027 86.6877 221.313 86.9964 221.54 87.4093C221.767 87.8221 221.881 88.3752 221.881 89.0684V94.8184H220.54V93.6365H220.472C220.381 93.8259 220.23 94.0286 220.017 94.2445C219.805 94.4604 219.523 94.6441 219.171 94.7956C218.819 94.9471 218.389 95.0229 217.881 95.0229ZM218.086 93.8184C218.616 93.8184 219.063 93.7142 219.427 93.5059C219.794 93.2975 220.07 93.0286 220.256 92.699C220.445 92.3695 220.54 92.0229 220.54 91.6593V90.432C220.483 90.5002 220.358 90.5627 220.165 90.6195C219.976 90.6725 219.756 90.7199 219.506 90.7615C219.26 90.7994 219.019 90.8335 218.784 90.8638C218.553 90.8903 218.366 90.9131 218.222 90.932C217.874 90.9775 217.548 91.0513 217.245 91.1536C216.945 91.2521 216.703 91.4017 216.517 91.6025C216.336 91.7994 216.245 92.0684 216.245 92.4093C216.245 92.8752 216.417 93.2275 216.762 93.4661C217.11 93.7009 217.552 93.8184 218.086 93.8184ZM224.169 94.8184V86.0911H225.464V87.4547H225.578C225.759 86.9888 226.053 86.6271 226.458 86.3695C226.864 86.1081 227.35 85.9775 227.919 85.9775C228.494 85.9775 228.973 86.1081 229.356 86.3695C229.742 86.6271 230.044 86.9888 230.259 87.4547H230.35C230.574 87.004 230.909 86.646 231.356 86.3809C231.803 86.1119 232.339 85.9775 232.964 85.9775C233.744 85.9775 234.383 86.2218 234.879 86.7104C235.375 87.1953 235.623 87.9509 235.623 88.9774V94.8184H234.282V88.9774C234.282 88.3335 234.106 87.8733 233.754 87.5968C233.401 87.3203 232.987 87.182 232.509 87.182C231.896 87.182 231.42 87.3676 231.083 87.7388C230.746 88.1062 230.578 88.5721 230.578 89.1365V94.8184H229.214V88.8411C229.214 88.3449 229.053 87.9453 228.731 87.6422C228.409 87.3354 227.994 87.182 227.487 87.182C227.138 87.182 226.812 87.2748 226.509 87.4604C226.21 87.646 225.968 87.9036 225.782 88.2331C225.6 88.5589 225.509 88.9358 225.509 89.3638V94.8184H224.169ZM241.574 95.0002C240.733 95.0002 240.008 94.8146 239.398 94.4434C238.792 94.0684 238.324 93.5456 237.994 92.8752C237.669 92.2009 237.506 91.4168 237.506 90.5229C237.506 89.629 237.669 88.8411 237.994 88.1593C238.324 87.4737 238.782 86.9396 239.369 86.557C239.96 86.1706 240.65 85.9775 241.438 85.9775C241.892 85.9775 242.341 86.0532 242.784 86.2047C243.227 86.3562 243.631 86.6025 243.994 86.9434C244.358 87.2805 244.648 87.7275 244.864 88.2843C245.08 88.8411 245.188 89.5267 245.188 90.3411V90.9093H238.46V89.7502H243.824C243.824 89.2578 243.725 88.8184 243.528 88.432C243.335 88.0456 243.059 87.7407 242.699 87.5172C242.343 87.2937 241.922 87.182 241.438 87.182C240.903 87.182 240.441 87.3146 240.051 87.5797C239.665 87.8411 239.367 88.182 239.159 88.6024C238.951 89.0229 238.847 89.4737 238.847 89.9547V90.7275C238.847 91.3865 238.96 91.9453 239.188 92.4036C239.419 92.8581 239.739 93.2047 240.148 93.4434C240.557 93.6782 241.032 93.7956 241.574 93.7956C241.926 93.7956 242.244 93.7464 242.528 93.6479C242.816 93.5456 243.064 93.3941 243.273 93.1934C243.481 92.9888 243.642 92.735 243.756 92.432L245.051 92.7956C244.915 93.235 244.686 93.6214 244.364 93.9547C244.042 94.2843 243.644 94.5418 243.17 94.7275C242.697 94.9093 242.165 95.0002 241.574 95.0002ZM250.863 86.0911V87.2274H246.34V86.0911H250.863ZM247.658 84.0002H248.999V92.3184C248.999 92.6971 249.054 92.9812 249.164 93.1706C249.277 93.3562 249.421 93.4812 249.596 93.5456C249.774 93.6062 249.961 93.6365 250.158 93.6365C250.306 93.6365 250.427 93.629 250.522 93.6138C250.617 93.5949 250.692 93.5797 250.749 93.5684L251.022 94.7729C250.931 94.807 250.804 94.8411 250.641 94.8752C250.478 94.9131 250.272 94.932 250.022 94.932C249.643 94.932 249.272 94.8506 248.908 94.6877C248.548 94.5248 248.249 94.2767 248.01 93.9434C247.776 93.61 247.658 93.1896 247.658 92.682V84.0002ZM260.605 95.0002C259.787 95.0002 259.083 94.807 258.492 94.4206C257.901 94.0343 257.446 93.5021 257.128 92.824C256.81 92.146 256.651 91.3714 256.651 90.5002C256.651 89.6138 256.814 88.8316 257.139 88.1536C257.469 87.4718 257.927 86.9396 258.514 86.557C259.105 86.1706 259.795 85.9775 260.583 85.9775C261.196 85.9775 261.749 86.0911 262.242 86.3184C262.734 86.5456 263.137 86.8638 263.452 87.2729C263.766 87.682 263.961 88.1593 264.037 88.7047H262.696C262.594 88.307 262.367 87.9547 262.014 87.6479C261.666 87.3373 261.196 87.182 260.605 87.182C260.083 87.182 259.624 87.3184 259.23 87.5911C258.84 87.86 258.535 88.2407 258.315 88.7331C258.1 89.2218 257.992 89.7956 257.992 90.4547C257.992 91.129 258.098 91.7161 258.31 92.2161C258.526 92.7161 258.829 93.1043 259.219 93.3809C259.613 93.6574 260.075 93.7956 260.605 93.7956C260.954 93.7956 261.27 93.735 261.554 93.6138C261.838 93.4926 262.079 93.3184 262.276 93.0911C262.473 92.8638 262.613 92.5911 262.696 92.2729H264.037C263.961 92.7881 263.774 93.2521 263.475 93.665C263.179 94.074 262.787 94.3998 262.298 94.6422C261.814 94.8809 261.249 95.0002 260.605 95.0002ZM269.383 95.0002C268.595 95.0002 267.904 94.8127 267.309 94.4377C266.718 94.0627 266.256 93.5381 265.923 92.8638C265.593 92.1896 265.428 91.4017 265.428 90.5002C265.428 89.5911 265.593 88.7975 265.923 88.1195C266.256 87.4415 266.718 86.915 267.309 86.54C267.904 86.165 268.595 85.9775 269.383 85.9775C270.171 85.9775 270.86 86.165 271.451 86.54C272.046 86.915 272.508 87.4415 272.837 88.1195C273.171 88.7975 273.337 89.5911 273.337 90.5002C273.337 91.4017 273.171 92.1896 272.837 92.8638C272.508 93.5381 272.046 94.0627 271.451 94.4377C270.86 94.8127 270.171 95.0002 269.383 95.0002ZM269.383 93.7956C269.981 93.7956 270.474 93.6422 270.86 93.3354C271.246 93.0286 271.532 92.6252 271.718 92.1252C271.904 91.6252 271.996 91.0835 271.996 90.5002C271.996 89.9168 271.904 89.3733 271.718 88.8695C271.532 88.3657 271.246 87.9585 270.86 87.6479C270.474 87.3373 269.981 87.182 269.383 87.182C268.784 87.182 268.292 87.3373 267.905 87.6479C267.519 87.9585 267.233 88.3657 267.048 88.8695C266.862 89.3733 266.769 89.9168 266.769 90.5002C266.769 91.0835 266.862 91.6252 267.048 92.1252C267.233 92.6252 267.519 93.0286 267.905 93.3354C268.292 93.6422 268.784 93.7956 269.383 93.7956ZM276.565 89.5684V94.8184H275.224V86.0911H276.52V87.4547H276.633C276.838 87.0115 277.148 86.6555 277.565 86.3865C277.982 86.1138 278.52 85.9775 279.179 85.9775C279.77 85.9775 280.287 86.0987 280.73 86.3411C281.173 86.5797 281.518 86.9434 281.764 87.432C282.01 87.9168 282.133 88.5305 282.133 89.2729V94.8184H280.792V89.3638C280.792 88.6782 280.614 88.1441 280.258 87.7615C279.902 87.3752 279.414 87.182 278.792 87.182C278.364 87.182 277.982 87.2748 277.645 87.4604C277.311 87.646 277.048 87.9168 276.855 88.2729C276.662 88.629 276.565 89.0608 276.565 89.5684ZM290.605 88.0456L289.401 88.3865C289.325 88.1858 289.213 87.9907 289.066 87.8013C288.922 87.6081 288.725 87.449 288.475 87.324C288.225 87.199 287.905 87.1365 287.514 87.1365C286.98 87.1365 286.535 87.2596 286.179 87.5059C285.827 87.7483 285.651 88.057 285.651 88.432C285.651 88.7653 285.772 89.0286 286.014 89.2218C286.257 89.415 286.636 89.5759 287.151 89.7047L288.446 90.0229C289.227 90.2123 289.808 90.5021 290.191 90.8922C290.573 91.2786 290.764 91.7767 290.764 92.3865C290.764 92.8865 290.62 93.3335 290.333 93.7275C290.049 94.1214 289.651 94.432 289.139 94.6593C288.628 94.8865 288.033 95.0002 287.355 95.0002C286.465 95.0002 285.728 94.807 285.145 94.4206C284.562 94.0343 284.192 93.4699 284.037 92.7275L285.31 92.4093C285.431 92.879 285.66 93.2312 285.997 93.4661C286.338 93.7009 286.783 93.8184 287.333 93.8184C287.958 93.8184 288.454 93.6858 288.821 93.4206C289.192 93.1517 289.378 92.8297 289.378 92.4547C289.378 92.1517 289.272 91.8979 289.06 91.6934C288.848 91.485 288.522 91.3297 288.083 91.2275L286.628 90.8865C285.829 90.6971 285.242 90.4036 284.867 90.0059C284.495 89.6043 284.31 89.1025 284.31 88.5002C284.31 88.0078 284.448 87.5721 284.725 87.1934C285.005 86.8146 285.386 86.5172 285.867 86.3013C286.352 86.0854 286.901 85.9775 287.514 85.9775C288.378 85.9775 289.056 86.1668 289.549 86.5456C290.045 86.9244 290.397 87.4244 290.605 88.0456ZM296.282 95.0002C295.441 95.0002 294.716 94.8146 294.106 94.4434C293.5 94.0684 293.032 93.5456 292.702 92.8752C292.377 92.2009 292.214 91.4168 292.214 90.5229C292.214 89.629 292.377 88.8411 292.702 88.1593C293.032 87.4737 293.49 86.9396 294.077 86.557C294.668 86.1706 295.358 85.9775 296.146 85.9775C296.6 85.9775 297.049 86.0532 297.492 86.2047C297.935 86.3562 298.339 86.6025 298.702 86.9434C299.066 87.2805 299.356 87.7275 299.572 88.2843C299.788 88.8411 299.896 89.5267 299.896 90.3411V90.9093H293.168V89.7502H298.532C298.532 89.2578 298.434 88.8184 298.237 88.432C298.043 88.0456 297.767 87.7407 297.407 87.5172C297.051 87.2937 296.63 87.182 296.146 87.182C295.612 87.182 295.149 87.3146 294.759 87.5797C294.373 87.8411 294.076 88.182 293.867 88.6024C293.659 89.0229 293.555 89.4737 293.555 89.9547V90.7275C293.555 91.3865 293.668 91.9453 293.896 92.4036C294.127 92.8581 294.447 93.2047 294.856 93.4434C295.265 93.6782 295.74 93.7956 296.282 93.7956C296.634 93.7956 296.952 93.7464 297.237 93.6479C297.524 93.5456 297.773 93.3941 297.981 93.1934C298.189 92.9888 298.35 92.735 298.464 92.432L299.759 92.7956C299.623 93.235 299.394 93.6214 299.072 93.9547C298.75 94.2843 298.352 94.5418 297.879 94.7275C297.405 94.9093 296.873 95.0002 296.282 95.0002ZM305.321 95.0002C304.503 95.0002 303.798 94.807 303.207 94.4206C302.616 94.0343 302.162 93.5021 301.844 92.824C301.525 92.146 301.366 91.3714 301.366 90.5002C301.366 89.6138 301.529 88.8316 301.855 88.1536C302.184 87.4718 302.643 86.9396 303.23 86.557C303.821 86.1706 304.51 85.9775 305.298 85.9775C305.912 85.9775 306.465 86.0911 306.957 86.3184C307.45 86.5456 307.853 86.8638 308.167 87.2729C308.482 87.682 308.677 88.1593 308.753 88.7047H307.412C307.309 88.307 307.082 87.9547 306.73 87.6479C306.381 87.3373 305.912 87.182 305.321 87.182C304.798 87.182 304.34 87.3184 303.946 87.5911C303.556 87.86 303.251 88.2407 303.031 88.7331C302.815 89.2218 302.707 89.7956 302.707 90.4547C302.707 91.129 302.813 91.7161 303.025 92.2161C303.241 92.7161 303.544 93.1043 303.934 93.3809C304.328 93.6574 304.791 93.7956 305.321 93.7956C305.669 93.7956 305.986 93.735 306.27 93.6138C306.554 93.4926 306.794 93.3184 306.991 93.0911C307.188 92.8638 307.328 92.5911 307.412 92.2729H308.753C308.677 92.7881 308.489 93.2521 308.19 93.665C307.895 94.074 307.503 94.3998 307.014 94.6422C306.529 94.8809 305.965 95.0002 305.321 95.0002ZM314.348 86.0911V87.2274H309.826V86.0911H314.348ZM311.144 84.0002H312.485V92.3184C312.485 92.6971 312.54 92.9812 312.649 93.1706C312.763 93.3562 312.907 93.4812 313.081 93.5456C313.259 93.6062 313.447 93.6365 313.644 93.6365C313.792 93.6365 313.913 93.629 314.007 93.6138C314.102 93.5949 314.178 93.5797 314.235 93.5684L314.507 94.7729C314.417 94.807 314.29 94.8411 314.127 94.8752C313.964 94.9131 313.757 94.932 313.507 94.932C313.129 94.932 312.757 94.8506 312.394 94.6877C312.034 94.5248 311.735 94.2767 311.496 93.9434C311.261 93.61 311.144 93.1896 311.144 92.682V84.0002ZM319.771 95.0002C318.93 95.0002 318.204 94.8146 317.595 94.4434C316.989 94.0684 316.521 93.5456 316.191 92.8752C315.865 92.2009 315.703 91.4168 315.703 90.5229C315.703 89.629 315.865 88.8411 316.191 88.1593C316.521 87.4737 316.979 86.9396 317.566 86.557C318.157 86.1706 318.846 85.9775 319.634 85.9775C320.089 85.9775 320.538 86.0532 320.981 86.2047C321.424 86.3562 321.828 86.6025 322.191 86.9434C322.555 87.2805 322.845 87.7275 323.061 88.2843C323.276 88.8411 323.384 89.5267 323.384 90.3411V90.9093H316.657V89.7502H322.021C322.021 89.2578 321.922 88.8184 321.725 88.432C321.532 88.0456 321.256 87.7407 320.896 87.5172C320.54 87.2937 320.119 87.182 319.634 87.182C319.1 87.182 318.638 87.3146 318.248 87.5797C317.862 87.8411 317.564 88.182 317.356 88.6024C317.148 89.0229 317.043 89.4737 317.043 89.9547V90.7275C317.043 91.3865 317.157 91.9453 317.384 92.4036C317.615 92.8581 317.936 93.2047 318.345 93.4434C318.754 93.6782 319.229 93.7956 319.771 93.7956C320.123 93.7956 320.441 93.7464 320.725 93.6479C321.013 93.5456 321.261 93.3941 321.47 93.1934C321.678 92.9888 321.839 92.735 321.953 92.432L323.248 92.7956C323.112 93.235 322.882 93.6214 322.561 93.9547C322.239 94.2843 321.841 94.5418 321.367 94.7275C320.894 94.9093 320.362 95.0002 319.771 95.0002ZM329.06 86.0911V87.2274H324.537V86.0911H329.06ZM325.855 84.0002H327.196V92.3184C327.196 92.6971 327.251 92.9812 327.361 93.1706C327.474 93.3562 327.618 93.4812 327.793 93.5456C327.971 93.6062 328.158 93.6365 328.355 93.6365C328.503 93.6365 328.624 93.629 328.719 93.6138C328.813 93.5949 328.889 93.5797 328.946 93.5684L329.219 94.7729C329.128 94.807 329.001 94.8411 328.838 94.8752C328.675 94.9131 328.469 94.932 328.219 94.932C327.84 94.932 327.469 94.8506 327.105 94.6877C326.745 94.5248 326.446 94.2767 326.207 93.9434C325.972 93.61 325.855 93.1896 325.855 92.682V84.0002ZM336.417 91.2502V86.0911H337.758V94.8184H336.417V93.3411H336.326C336.121 93.7843 335.803 94.1612 335.371 94.4718C334.939 94.7786 334.394 94.932 333.735 94.932C333.189 94.932 332.705 94.8127 332.28 94.574C331.856 94.3316 331.523 93.968 331.28 93.4831C331.038 92.9945 330.917 92.379 330.917 91.6365V86.0911H332.258V91.5456C332.258 92.182 332.436 92.6896 332.792 93.0684C333.151 93.4471 333.61 93.6365 334.167 93.6365C334.5 93.6365 334.839 93.5513 335.184 93.3809C335.532 93.2104 335.824 92.949 336.059 92.5968C336.297 92.2445 336.417 91.7956 336.417 91.2502ZM340.054 94.8184V86.0911H341.349V87.4093H341.44C341.599 86.9775 341.887 86.6271 342.304 86.3581C342.72 86.0892 343.19 85.9547 343.713 85.9547C343.811 85.9547 343.934 85.9566 344.082 85.9604C344.23 85.9642 344.341 85.9699 344.417 85.9775V87.3411C344.372 87.3297 344.268 87.3127 344.105 87.2899C343.946 87.2634 343.777 87.2502 343.599 87.2502C343.175 87.2502 342.796 87.3392 342.463 87.5172C342.133 87.6915 341.872 87.9339 341.679 88.2445C341.489 88.5513 341.394 88.9017 341.394 89.2956V94.8184H340.054ZM47.7955 121.023C47.2424 121.023 46.7405 120.919 46.2898 120.71C45.839 120.498 45.4811 120.193 45.2159 119.796C44.9508 119.394 44.8182 118.909 44.8182 118.341C44.8182 117.841 44.9167 117.436 45.1136 117.125C45.3106 116.811 45.5739 116.565 45.9034 116.387C46.233 116.209 46.5966 116.076 46.9943 115.989C47.3958 115.898 47.7992 115.826 48.2045 115.773C48.7348 115.705 49.1648 115.654 49.4943 115.619C49.8277 115.582 50.0701 115.519 50.2216 115.432C50.3769 115.345 50.4545 115.193 50.4545 114.977V114.932C50.4545 114.371 50.3011 113.936 49.9943 113.625C49.6913 113.315 49.2311 113.159 48.6136 113.159C47.9735 113.159 47.4716 113.299 47.108 113.58C46.7443 113.86 46.4886 114.159 46.3409 114.477L45.0682 114.023C45.2955 113.493 45.5985 113.08 45.9773 112.784C46.3598 112.485 46.7765 112.277 47.2273 112.159C47.6818 112.038 48.1288 111.977 48.5682 111.977C48.8485 111.977 49.1705 112.012 49.5341 112.08C49.9015 112.144 50.2557 112.279 50.5966 112.483C50.9413 112.688 51.2273 112.996 51.4545 113.409C51.6818 113.822 51.7955 114.375 51.7955 115.068V120.818H50.4545V119.637H50.3864C50.2955 119.826 50.1439 120.029 49.9318 120.244C49.7197 120.46 49.4375 120.644 49.0852 120.796C48.733 120.947 48.303 121.023 47.7955 121.023ZM48 119.818C48.5303 119.818 48.9773 119.714 49.3409 119.506C49.7083 119.298 49.9848 119.029 50.1705 118.699C50.3598 118.369 50.4545 118.023 50.4545 117.659V116.432C50.3977 116.5 50.2727 116.563 50.0795 116.619C49.8902 116.673 49.6705 116.72 49.4205 116.762C49.1742 116.799 48.9337 116.834 48.6989 116.864C48.4678 116.89 48.2803 116.913 48.1364 116.932C47.7879 116.977 47.4621 117.051 47.1591 117.154C46.8598 117.252 46.6174 117.402 46.4318 117.602C46.25 117.799 46.1591 118.068 46.1591 118.409C46.1591 118.875 46.3314 119.227 46.6761 119.466C47.0246 119.701 47.4659 119.818 48 119.818ZM57.3784 121C56.6511 121 56.009 120.816 55.4522 120.449C54.8954 120.078 54.4598 119.555 54.1454 118.881C53.831 118.203 53.6738 117.402 53.6738 116.477C53.6738 115.561 53.831 114.765 54.1454 114.091C54.4598 113.417 54.8973 112.896 55.4579 112.529C56.0185 112.161 56.6662 111.977 57.4011 111.977C57.9693 111.977 58.4181 112.072 58.7477 112.262C59.081 112.447 59.3348 112.659 59.509 112.898C59.6871 113.133 59.8253 113.326 59.9238 113.477H60.0374V109.182H61.3784V120.818H60.0829V119.477H59.9238C59.8253 119.637 59.6852 119.837 59.5034 120.08C59.3215 120.318 59.0621 120.532 58.7249 120.722C58.3878 120.907 57.939 121 57.3784 121ZM57.5602 119.796C58.098 119.796 58.5526 119.655 58.9238 119.375C59.295 119.091 59.5772 118.699 59.7704 118.199C59.9636 117.695 60.0602 117.114 60.0602 116.455C60.0602 115.803 59.9655 115.233 59.7761 114.744C59.5867 114.252 59.3064 113.869 58.9352 113.597C58.564 113.32 58.1056 113.182 57.5602 113.182C56.992 113.182 56.5185 113.328 56.1397 113.619C55.7647 113.907 55.4825 114.299 55.2931 114.796C55.1075 115.288 55.0147 115.841 55.0147 116.455C55.0147 117.076 55.1094 117.64 55.2988 118.148C55.492 118.652 55.7761 119.053 56.1511 119.352C56.5299 119.648 56.9996 119.796 57.5602 119.796ZM63.8604 120.818V112.091H65.2013V120.818H63.8604ZM64.5422 110.637C64.2809 110.637 64.0555 110.548 63.8661 110.369C63.6805 110.191 63.5877 109.977 63.5877 109.727C63.5877 109.477 63.6805 109.263 63.8661 109.085C64.0555 108.907 64.2809 108.818 64.5422 108.818C64.8036 108.818 65.0271 108.907 65.2127 109.085C65.4021 109.263 65.4968 109.477 65.4968 109.727C65.4968 109.977 65.4021 110.191 65.2127 110.369C65.0271 110.548 64.8036 110.637 64.5422 110.637ZM67.4973 124.091V112.091H68.7927V113.477H68.9518C69.0503 113.326 69.1867 113.133 69.3609 112.898C69.5389 112.659 69.7927 112.447 70.1223 112.262C70.4556 112.072 70.9064 111.977 71.4745 111.977C72.2094 111.977 72.8571 112.161 73.4177 112.529C73.9783 112.896 74.4158 113.417 74.7302 114.091C75.0446 114.765 75.2018 115.561 75.2018 116.477C75.2018 117.402 75.0446 118.203 74.7302 118.881C74.4158 119.555 73.9802 120.078 73.4234 120.449C72.8666 120.816 72.2245 121 71.4973 121C70.9367 121 70.4878 120.907 70.1507 120.722C69.8136 120.532 69.5541 120.318 69.3723 120.08C69.1905 119.837 69.0503 119.637 68.9518 119.477H68.8382V124.091H67.4973ZM68.8155 116.455C68.8155 117.114 68.912 117.695 69.1052 118.199C69.2984 118.699 69.5806 119.091 69.9518 119.375C70.323 119.655 70.7776 119.796 71.3155 119.796C71.8761 119.796 72.3439 119.648 72.7189 119.352C73.0977 119.053 73.3817 118.652 73.5711 118.148C73.7643 117.64 73.8609 117.076 73.8609 116.455C73.8609 115.841 73.7662 115.288 73.5768 114.796C73.3912 114.299 73.109 113.907 72.7302 113.619C72.3552 113.328 71.8836 113.182 71.3155 113.182C70.77 113.182 70.3117 113.32 69.9405 113.597C69.5692 113.869 69.2889 114.252 69.0995 114.744C68.9102 115.233 68.8155 115.803 68.8155 116.455ZM77.0873 120.818V112.091H78.4282V120.818H77.0873ZM77.7691 110.637C77.5077 110.637 77.2823 110.548 77.093 110.369C76.9073 110.191 76.8145 109.977 76.8145 109.727C76.8145 109.477 76.9073 109.263 77.093 109.085C77.2823 108.907 77.5077 108.818 77.7691 108.818C78.0305 108.818 78.2539 108.907 78.4395 109.085C78.6289 109.263 78.7236 109.477 78.7236 109.727C78.7236 109.977 78.6289 110.191 78.4395 110.369C78.2539 110.548 78.0305 110.637 77.7691 110.637ZM86.906 114.046L85.7014 114.387C85.6257 114.186 85.5139 113.991 85.3662 113.801C85.2223 113.608 85.0253 113.449 84.7753 113.324C84.5253 113.199 84.2052 113.137 83.8151 113.137C83.281 113.137 82.8359 113.26 82.4798 113.506C82.1276 113.748 81.9514 114.057 81.9514 114.432C81.9514 114.765 82.0726 115.029 82.3151 115.222C82.5575 115.415 82.9363 115.576 83.4514 115.705L84.7469 116.023C85.5272 116.212 86.1086 116.502 86.4912 116.892C86.8738 117.279 87.0651 117.777 87.0651 118.387C87.0651 118.887 86.9211 119.334 86.6332 119.727C86.3491 120.121 85.9514 120.432 85.4401 120.659C84.9287 120.887 84.334 121 83.656 121C82.7658 121 82.0291 120.807 81.4457 120.421C80.8624 120.034 80.4931 119.47 80.3378 118.727L81.6105 118.409C81.7317 118.879 81.9609 119.231 82.298 119.466C82.6389 119.701 83.084 119.818 83.6332 119.818C84.2582 119.818 84.7545 119.686 85.1219 119.421C85.4931 119.152 85.6787 118.83 85.6787 118.455C85.6787 118.152 85.5726 117.898 85.3605 117.693C85.1484 117.485 84.8226 117.33 84.3832 117.227L82.9287 116.887C82.1295 116.697 81.5423 116.404 81.1673 116.006C80.7961 115.604 80.6105 115.102 80.6105 114.5C80.6105 114.008 80.7488 113.572 81.0253 113.193C81.3056 112.815 81.6863 112.517 82.1673 112.301C82.6522 112.085 83.2014 111.977 83.8151 111.977C84.6787 111.977 85.3567 112.167 85.8491 112.546C86.3454 112.924 86.6976 113.424 86.906 114.046ZM88.9235 120.818V112.091H90.2644V120.818H88.9235ZM89.6053 110.637C89.344 110.637 89.1186 110.548 88.9292 110.369C88.7436 110.191 88.6508 109.977 88.6508 109.727C88.6508 109.477 88.7436 109.263 88.9292 109.085C89.1186 108.907 89.344 108.818 89.6053 108.818C89.8667 108.818 90.0902 108.907 90.2758 109.085C90.4652 109.263 90.5599 109.477 90.5599 109.727C90.5599 109.977 90.4652 110.191 90.2758 110.369C90.0902 110.548 89.8667 110.637 89.6053 110.637ZM96.1059 121C95.2877 121 94.5831 120.807 93.9922 120.421C93.4013 120.034 92.9468 119.502 92.6286 118.824C92.3104 118.146 92.1513 117.371 92.1513 116.5C92.1513 115.614 92.3142 114.832 92.6399 114.154C92.9695 113.472 93.4278 112.94 94.0149 112.557C94.6059 112.171 95.2952 111.977 96.0831 111.977C96.6968 111.977 97.2498 112.091 97.7422 112.318C98.2346 112.546 98.6381 112.864 98.9524 113.273C99.2668 113.682 99.4619 114.159 99.5377 114.705H98.1968C98.0945 114.307 97.8672 113.955 97.5149 113.648C97.1665 113.337 96.6968 113.182 96.1059 113.182C95.5831 113.182 95.1248 113.318 94.7309 113.591C94.3407 113.86 94.0358 114.241 93.8161 114.733C93.6002 115.222 93.4922 115.796 93.4922 116.455C93.4922 117.129 93.5983 117.716 93.8104 118.216C94.0263 118.716 94.3293 119.104 94.7195 119.381C95.1134 119.657 95.5756 119.796 96.1059 119.796C96.4543 119.796 96.7706 119.735 97.0547 119.614C97.3388 119.493 97.5793 119.318 97.7763 119.091C97.9733 118.864 98.1134 118.591 98.1968 118.273H99.5377C99.4619 118.788 99.2744 119.252 98.9752 119.665C98.6797 120.074 98.2877 120.4 97.799 120.642C97.3142 120.881 96.7498 121 96.1059 121ZM101.338 120.818V112.091H102.679V120.818H101.338ZM102.02 110.637C101.758 110.637 101.533 110.548 101.344 110.369C101.158 110.191 101.065 109.977 101.065 109.727C101.065 109.477 101.158 109.263 101.344 109.085C101.533 108.907 101.758 108.818 102.02 108.818C102.281 108.818 102.505 108.907 102.69 109.085C102.88 109.263 102.974 109.477 102.974 109.727C102.974 109.977 102.88 110.191 102.69 110.369C102.505 110.548 102.281 110.637 102.02 110.637ZM106.316 115.568V120.818H104.975V112.091H106.27V113.455H106.384C106.588 113.012 106.899 112.655 107.316 112.387C107.732 112.114 108.27 111.977 108.929 111.977C109.52 111.977 110.037 112.099 110.48 112.341C110.924 112.58 111.268 112.943 111.515 113.432C111.761 113.917 111.884 114.53 111.884 115.273V120.818H110.543V115.364C110.543 114.678 110.365 114.144 110.009 113.762C109.653 113.375 109.164 113.182 108.543 113.182C108.115 113.182 107.732 113.275 107.395 113.46C107.062 113.646 106.799 113.917 106.605 114.273C106.412 114.629 106.316 115.061 106.316 115.568ZM117.697 124.273C117.049 124.273 116.492 124.19 116.026 124.023C115.561 123.86 115.172 123.644 114.862 123.375C114.555 123.11 114.311 122.826 114.129 122.523L115.197 121.773C115.318 121.932 115.471 122.114 115.657 122.318C115.843 122.527 116.096 122.707 116.418 122.858C116.744 123.013 117.17 123.091 117.697 123.091C118.401 123.091 118.983 122.921 119.441 122.58C119.9 122.239 120.129 121.705 120.129 120.977V119.205H120.015C119.917 119.364 119.776 119.561 119.595 119.796C119.417 120.027 119.159 120.233 118.822 120.415C118.489 120.593 118.038 120.682 117.47 120.682C116.765 120.682 116.132 120.515 115.572 120.182C115.015 119.849 114.574 119.364 114.248 118.727C113.926 118.091 113.765 117.318 113.765 116.409C113.765 115.515 113.922 114.737 114.237 114.074C114.551 113.407 114.989 112.892 115.549 112.529C116.11 112.161 116.757 111.977 117.492 111.977C118.061 111.977 118.511 112.072 118.845 112.262C119.182 112.447 119.439 112.659 119.617 112.898C119.799 113.133 119.939 113.326 120.038 113.477H120.174V112.091H121.47V121.068C121.47 121.818 121.299 122.428 120.958 122.898C120.621 123.371 120.167 123.718 119.595 123.938C119.026 124.161 118.394 124.273 117.697 124.273ZM117.651 119.477C118.189 119.477 118.644 119.354 119.015 119.108C119.386 118.862 119.668 118.508 119.862 118.046C120.055 117.584 120.151 117.03 120.151 116.387C120.151 115.758 120.057 115.203 119.867 114.722C119.678 114.241 119.398 113.864 119.026 113.591C118.655 113.318 118.197 113.182 117.651 113.182C117.083 113.182 116.61 113.326 116.231 113.614C115.856 113.902 115.574 114.288 115.384 114.773C115.199 115.258 115.106 115.796 115.106 116.387C115.106 116.993 115.201 117.529 115.39 117.994C115.583 118.457 115.867 118.82 116.242 119.085C116.621 119.347 117.091 119.477 117.651 119.477ZM131.763 121C130.922 121 130.197 120.815 129.587 120.443C128.981 120.068 128.513 119.546 128.184 118.875C127.858 118.201 127.695 117.417 127.695 116.523C127.695 115.629 127.858 114.841 128.184 114.159C128.513 113.474 128.972 112.94 129.559 112.557C130.15 112.171 130.839 111.977 131.627 111.977C132.081 111.977 132.53 112.053 132.973 112.205C133.417 112.356 133.82 112.602 134.184 112.943C134.547 113.28 134.837 113.727 135.053 114.284C135.269 114.841 135.377 115.527 135.377 116.341V116.909H128.65V115.75H134.013C134.013 115.258 133.915 114.818 133.718 114.432C133.525 114.046 133.248 113.741 132.888 113.517C132.532 113.294 132.112 113.182 131.627 113.182C131.093 113.182 130.631 113.315 130.241 113.58C129.854 113.841 129.557 114.182 129.348 114.602C129.14 115.023 129.036 115.474 129.036 115.955V116.727C129.036 117.387 129.15 117.945 129.377 118.404C129.608 118.858 129.928 119.205 130.337 119.443C130.746 119.678 131.222 119.796 131.763 119.796C132.116 119.796 132.434 119.746 132.718 119.648C133.006 119.546 133.254 119.394 133.462 119.193C133.67 118.989 133.831 118.735 133.945 118.432L135.241 118.796C135.104 119.235 134.875 119.621 134.553 119.955C134.231 120.284 133.833 120.542 133.36 120.727C132.886 120.909 132.354 121 131.763 121ZM138.598 109.182V120.818H137.257V109.182H138.598ZM140.894 120.818V112.091H142.234V120.818H140.894ZM141.575 110.637C141.314 110.637 141.089 110.548 140.899 110.369C140.714 110.191 140.621 109.977 140.621 109.727C140.621 109.477 140.714 109.263 140.899 109.085C141.089 108.907 141.314 108.818 141.575 108.818C141.837 108.818 142.06 108.907 142.246 109.085C142.435 109.263 142.53 109.477 142.53 109.727C142.53 109.977 142.435 110.191 142.246 110.369C142.06 110.548 141.837 110.637 141.575 110.637ZM148.326 112.091V113.227H143.803V112.091H148.326ZM145.121 110H146.462V118.318C146.462 118.697 146.517 118.981 146.627 119.171C146.741 119.356 146.885 119.481 147.059 119.546C147.237 119.606 147.424 119.637 147.621 119.637C147.769 119.637 147.89 119.629 147.985 119.614C148.08 119.595 148.155 119.58 148.212 119.568L148.485 120.773C148.394 120.807 148.267 120.841 148.104 120.875C147.941 120.913 147.735 120.932 147.485 120.932C147.106 120.932 146.735 120.851 146.371 120.688C146.011 120.525 145.712 120.277 145.474 119.943C145.239 119.61 145.121 119.19 145.121 118.682V110ZM151.16 120.909C150.88 120.909 150.639 120.809 150.439 120.608C150.238 120.407 150.137 120.167 150.137 119.887C150.137 119.606 150.238 119.366 150.439 119.165C150.639 118.964 150.88 118.864 151.16 118.864C151.44 118.864 151.681 118.964 151.882 119.165C152.083 119.366 152.183 119.606 152.183 119.887C152.183 120.072 152.136 120.243 152.041 120.398C151.95 120.553 151.827 120.678 151.672 120.773C151.52 120.864 151.35 120.909 151.16 120.909ZM154.276 109.182V113.182H153.026V109.182H154.276ZM157.185 109.182V113.182H155.935V109.182H157.185Z" fill="#191919"/>
<path d="M50.14 54.8396C49.1133 54.8396 48.2067 54.6663 47.42 54.3196C46.6333 53.9596 46.0133 53.4529 45.56 52.7996C45.1067 52.1329 44.8733 51.3263 44.86 50.3796H47.56C47.5867 51.0329 47.82 51.5863 48.26 52.0396C48.7133 52.4796 49.3333 52.6996 50.12 52.6996C50.8 52.6996 51.34 52.5396 51.74 52.2196C52.14 51.8863 52.34 51.4463 52.34 50.8996C52.34 50.3263 52.16 49.8796 51.8 49.5596C51.4533 49.2396 50.9867 48.9796 50.4 48.7796C49.8133 48.5796 49.1867 48.3663 48.52 48.1396C47.44 47.7663 46.6133 47.2863 46.04 46.6996C45.48 46.1129 45.2 45.3329 45.2 44.3596C45.1867 43.5329 45.38 42.8263 45.78 42.2396C46.1933 41.6396 46.7533 41.1796 47.46 40.8596C48.1667 40.5263 48.98 40.3596 49.9 40.3596C50.8333 40.3596 51.6533 40.5263 52.36 40.8596C53.08 41.1929 53.64 41.6596 54.04 42.2596C54.4533 42.8596 54.6733 43.5729 54.7 44.3996H51.96C51.9467 43.9063 51.7533 43.4729 51.38 43.0996C51.02 42.7129 50.5133 42.5196 49.86 42.5196C49.3 42.5063 48.8267 42.6463 48.44 42.9396C48.0667 43.2196 47.88 43.6329 47.88 44.1796C47.88 44.6463 48.0267 45.0196 48.32 45.2996C48.6133 45.5663 49.0133 45.7929 49.52 45.9796C50.0267 46.1663 50.6067 46.3663 51.26 46.5796C51.9533 46.8196 52.5867 47.0996 53.16 47.4196C53.7333 47.7396 54.1933 48.1663 54.54 48.6996C54.8867 49.2196 55.06 49.8929 55.06 50.7196C55.06 51.4529 54.8733 52.1329 54.5 52.7596C54.1267 53.3863 53.5733 53.8929 52.84 54.2796C52.1067 54.6529 51.2067 54.8396 50.14 54.8396ZM60.6536 54.8396C59.8003 54.8396 59.1003 54.7063 58.5536 54.4396C58.0069 54.1596 57.6003 53.7929 57.3336 53.3396C57.0669 52.8863 56.9336 52.3863 56.9336 51.8396C56.9336 50.9196 57.2936 50.1729 58.0136 49.5996C58.7336 49.0263 59.8136 48.7396 61.2536 48.7396H63.7736V48.4996C63.7736 47.8196 63.5803 47.3196 63.1936 46.9996C62.8069 46.6796 62.3269 46.5196 61.7536 46.5196C61.2336 46.5196 60.7803 46.6463 60.3936 46.8996C60.0069 47.1396 59.7669 47.4996 59.6736 47.9796H57.1736C57.2403 47.2596 57.4803 46.6329 57.8936 46.0996C58.3203 45.5663 58.8669 45.1596 59.5336 44.8796C60.2003 44.5863 60.9469 44.4396 61.7736 44.4396C63.1869 44.4396 64.3003 44.7929 65.1136 45.4996C65.9269 46.2063 66.3336 47.2063 66.3336 48.4996V54.5996H64.1536L63.9136 52.9996C63.6203 53.5329 63.2069 53.9729 62.6736 54.3196C62.1536 54.6663 61.4803 54.8396 60.6536 54.8396ZM61.2336 52.8396C61.9669 52.8396 62.5336 52.5996 62.9336 52.1196C63.3469 51.6396 63.6069 51.0463 63.7136 50.3396H61.5336C60.8536 50.3396 60.3669 50.4663 60.0736 50.7196C59.7803 50.9596 59.6336 51.2596 59.6336 51.6196C59.6336 52.0063 59.7803 52.3063 60.0736 52.5196C60.3669 52.7329 60.7536 52.8396 61.2336 52.8396ZM68.7766 54.5996V44.6796H71.0366L71.2566 46.0196C71.5766 45.5396 71.9966 45.1596 72.5166 44.8796C73.0499 44.5863 73.6632 44.4396 74.3566 44.4396C75.8899 44.4396 76.9766 45.0329 77.6166 46.2196C77.9766 45.6729 78.4566 45.2396 79.0566 44.9196C79.6699 44.5996 80.3366 44.4396 81.0566 44.4396C82.3499 44.4396 83.3432 44.8263 84.0366 45.5996C84.7299 46.3729 85.0766 47.5063 85.0766 48.9996V54.5996H82.5166V49.2396C82.5166 48.3863 82.3499 47.7329 82.0166 47.2796C81.6966 46.8263 81.1966 46.5996 80.5166 46.5996C79.8232 46.5996 79.2632 46.8529 78.8366 47.3596C78.4232 47.8663 78.2166 48.5729 78.2166 49.4796V54.5996H75.6566V49.2396C75.6566 48.3863 75.4899 47.7329 75.1566 47.2796C74.8232 46.8263 74.3099 46.5996 73.6166 46.5996C72.9366 46.5996 72.3832 46.8529 71.9566 47.3596C71.5432 47.8663 71.3366 48.5729 71.3366 49.4796V54.5996H68.7766ZM90.927 54.8396C90.0737 54.8396 89.3737 54.7063 88.827 54.4396C88.2804 54.1596 87.8737 53.7929 87.607 53.3396C87.3404 52.8863 87.207 52.3863 87.207 51.8396C87.207 50.9196 87.567 50.1729 88.287 49.5996C89.007 49.0263 90.087 48.7396 91.527 48.7396H94.047V48.4996C94.047 47.8196 93.8537 47.3196 93.467 46.9996C93.0804 46.6796 92.6004 46.5196 92.027 46.5196C91.507 46.5196 91.0537 46.6463 90.667 46.8996C90.2804 47.1396 90.0404 47.4996 89.947 47.9796H87.447C87.5137 47.2596 87.7537 46.6329 88.167 46.0996C88.5937 45.5663 89.1404 45.1596 89.807 44.8796C90.4737 44.5863 91.2204 44.4396 92.047 44.4396C93.4604 44.4396 94.5737 44.7929 95.387 45.4996C96.2004 46.2063 96.607 47.2063 96.607 48.4996V54.5996H94.427L94.187 52.9996C93.8937 53.5329 93.4804 53.9729 92.947 54.3196C92.427 54.6663 91.7537 54.8396 90.927 54.8396ZM91.507 52.8396C92.2404 52.8396 92.807 52.5996 93.207 52.1196C93.6204 51.6396 93.8804 51.0463 93.987 50.3396H91.807C91.127 50.3396 90.6404 50.4663 90.347 50.7196C90.0537 50.9596 89.907 51.2596 89.907 51.6196C89.907 52.0063 90.0537 52.3063 90.347 52.5196C90.6404 52.7329 91.027 52.8396 91.507 52.8396ZM99.05 54.5996V44.6796H101.31L101.51 46.3596C101.817 45.7729 102.257 45.3063 102.83 44.9596C103.417 44.6129 104.103 44.4396 104.89 44.4396C106.117 44.4396 107.07 44.8263 107.75 45.5996C108.43 46.3729 108.77 47.5063 108.77 48.9996V54.5996H106.21V49.2396C106.21 48.3863 106.037 47.7329 105.69 47.2796C105.343 46.8263 104.803 46.5996 104.07 46.5996C103.35 46.5996 102.757 46.8529 102.29 47.3596C101.837 47.8663 101.61 48.5729 101.61 49.4796V54.5996H99.05ZM115.638 54.5996C114.598 54.5996 113.765 54.3463 113.138 53.8396C112.511 53.3329 112.198 52.4329 112.198 51.1396V46.8196H110.498V44.6796H112.198L112.498 42.0196H114.758V44.6796H117.438V46.8196H114.758V51.1596C114.758 51.6396 114.858 51.9729 115.058 52.1596C115.271 52.3329 115.631 52.4196 116.138 52.4196H117.378V54.5996H115.638ZM119.636 54.5996V40.1996H122.196V46.1996C122.529 45.6529 122.976 45.2263 123.536 44.9196C124.109 44.5996 124.763 44.4396 125.496 44.4396C126.723 44.4396 127.669 44.8263 128.336 45.5996C129.016 46.3729 129.356 47.5063 129.356 48.9996V54.5996H126.816V49.2396C126.816 48.3863 126.643 47.7329 126.296 47.2796C125.963 46.8263 125.429 46.5996 124.696 46.5996C123.976 46.5996 123.376 46.8529 122.896 47.3596C122.429 47.8663 122.196 48.5729 122.196 49.4796V54.5996H119.636ZM135.224 54.8396C134.371 54.8396 133.671 54.7063 133.124 54.4396C132.577 54.1596 132.171 53.7929 131.904 53.3396C131.637 52.8863 131.504 52.3863 131.504 51.8396C131.504 50.9196 131.864 50.1729 132.584 49.5996C133.304 49.0263 134.384 48.7396 135.824 48.7396H138.344V48.4996C138.344 47.8196 138.151 47.3196 137.764 46.9996C137.377 46.6796 136.897 46.5196 136.324 46.5196C135.804 46.5196 135.351 46.6463 134.964 46.8996C134.577 47.1396 134.337 47.4996 134.244 47.9796H131.744C131.811 47.2596 132.051 46.6329 132.464 46.0996C132.891 45.5663 133.437 45.1596 134.104 44.8796C134.771 44.5863 135.517 44.4396 136.344 44.4396C137.757 44.4396 138.871 44.7929 139.684 45.4996C140.497 46.2063 140.904 47.2063 140.904 48.4996V54.5996H138.724L138.484 52.9996C138.191 53.5329 137.777 53.9729 137.244 54.3196C136.724 54.6663 136.051 54.8396 135.224 54.8396ZM135.804 52.8396C136.537 52.8396 137.104 52.5996 137.504 52.1196C137.917 51.6396 138.177 51.0463 138.284 50.3396H136.104C135.424 50.3396 134.937 50.4663 134.644 50.7196C134.351 50.9596 134.204 51.2596 134.204 51.6196C134.204 52.0063 134.351 52.3063 134.644 52.5196C134.937 52.7329 135.324 52.8396 135.804 52.8396ZM148.173 54.5996V40.5996H153.793C155.246 40.5996 156.353 40.9396 157.113 41.6196C157.886 42.2863 158.273 43.1463 158.273 44.1996C158.273 45.0796 158.033 45.7863 157.553 46.3196C157.086 46.8396 156.513 47.1929 155.833 47.3796C156.633 47.5396 157.293 47.9396 157.813 48.5796C158.333 49.2063 158.593 49.9396 158.593 50.7796C158.593 51.8863 158.193 52.7996 157.393 53.5196C156.593 54.2396 155.459 54.5996 153.993 54.5996H148.173ZM150.733 46.4796H153.413C154.133 46.4796 154.686 46.3129 155.073 45.9796C155.459 45.6463 155.653 45.1729 155.653 44.5596C155.653 43.9729 155.459 43.5129 155.073 43.1796C154.699 42.8329 154.133 42.6596 153.373 42.6596H150.733V46.4796ZM150.733 52.5196H153.593C154.353 52.5196 154.939 52.3463 155.353 51.9996C155.779 51.6396 155.993 51.1396 155.993 50.4996C155.993 49.8463 155.773 49.3329 155.333 48.9596C154.893 48.5863 154.299 48.3996 153.553 48.3996H150.733V52.5196ZM160.73 54.5996V44.6796H163.01L163.25 46.5396C163.61 45.8996 164.096 45.3929 164.71 45.0196C165.336 44.6329 166.07 44.4396 166.91 44.4396V47.1396H166.19C165.63 47.1396 165.13 47.2263 164.69 47.3996C164.25 47.5729 163.903 47.8729 163.65 48.2996C163.41 48.7263 163.29 49.3196 163.29 50.0796V54.5996H160.73ZM173.244 54.8396C172.284 54.8396 171.417 54.6196 170.644 54.1796C169.884 53.7396 169.277 53.1329 168.824 52.3596C168.384 51.5729 168.164 50.6663 168.164 49.6396C168.164 48.6129 168.39 47.7129 168.844 46.9396C169.297 46.1529 169.904 45.5396 170.664 45.0996C171.437 44.6596 172.304 44.4396 173.264 44.4396C174.21 44.4396 175.064 44.6596 175.824 45.0996C176.597 45.5396 177.204 46.1529 177.644 46.9396C178.097 47.7129 178.324 48.6129 178.324 49.6396C178.324 50.6663 178.097 51.5729 177.644 52.3596C177.204 53.1329 176.597 53.7396 175.824 54.1796C175.05 54.6196 174.19 54.8396 173.244 54.8396ZM173.244 52.6196C173.91 52.6196 174.49 52.3729 174.984 51.8796C175.477 51.3729 175.724 50.6263 175.724 49.6396C175.724 48.6529 175.477 47.9129 174.984 47.4196C174.49 46.9129 173.917 46.6596 173.264 46.6596C172.584 46.6596 171.997 46.9129 171.504 47.4196C171.024 47.9129 170.784 48.6529 170.784 49.6396C170.784 50.6263 171.024 51.3729 171.504 51.8796C171.997 52.3729 172.577 52.6196 173.244 52.6196ZM182.201 54.5996L179.301 44.6796H181.841L183.561 51.8196L185.561 44.6796H188.401L190.401 51.8196L192.141 44.6796H194.681L191.761 54.5996H189.101L186.981 47.1796L184.861 54.5996H182.201ZM196.296 54.5996V44.6796H198.556L198.756 46.3596C199.063 45.7729 199.503 45.3063 200.076 44.9596C200.663 44.6129 201.349 44.4396 202.136 44.4396C203.363 44.4396 204.316 44.8263 204.996 45.5996C205.676 46.3729 206.016 47.5063 206.016 48.9996V54.5996H203.456V49.2396C203.456 48.3863 203.283 47.7329 202.936 47.2796C202.589 46.8263 202.049 46.5996 201.316 46.5996C200.596 46.5996 200.003 46.8529 199.536 47.3596C199.083 47.8663 198.856 48.5729 198.856 49.4796V54.5996H196.296ZM207.444 56.9196L208.584 51.9396H211.064L209.124 56.9196H207.444Z" fill="#191919"/>
<path d="M217.647 54.5996V43.3996H224.879V45.0476H219.695V48.1836H223.887V49.7996H219.695V54.5996H217.647ZM229.797 54.7916C229.029 54.7916 228.336 54.6156 227.717 54.2636C227.109 53.9116 226.624 53.4263 226.261 52.8076C225.909 52.1783 225.733 51.4529 225.733 50.6316C225.733 49.8103 225.915 49.0903 226.277 48.4716C226.64 47.8423 227.125 47.3516 227.733 46.9996C228.352 46.6476 229.045 46.4716 229.813 46.4716C230.571 46.4716 231.253 46.6476 231.861 46.9996C232.48 47.3516 232.965 47.8423 233.317 48.4716C233.68 49.0903 233.861 49.8103 233.861 50.6316C233.861 51.4529 233.68 52.1783 233.317 52.8076C232.965 53.4263 232.48 53.9116 231.861 54.2636C231.243 54.6156 230.555 54.7916 229.797 54.7916ZM229.797 53.0156C230.331 53.0156 230.795 52.8183 231.189 52.4236C231.584 52.0183 231.781 51.4209 231.781 50.6316C231.781 49.8423 231.584 49.2503 231.189 48.8556C230.795 48.4503 230.336 48.2476 229.813 48.2476C229.269 48.2476 228.8 48.4503 228.405 48.8556C228.021 49.2503 227.829 49.8423 227.829 50.6316C227.829 51.4209 228.021 52.0183 228.405 52.4236C228.8 52.8183 229.264 53.0156 229.797 53.0156ZM238.668 54.7916C237.676 54.7916 236.908 54.4823 236.364 53.8636C235.831 53.2449 235.564 52.3383 235.564 51.1436V46.6636H237.596V50.9516C237.596 51.6343 237.735 52.1569 238.012 52.5196C238.29 52.8823 238.727 53.0636 239.324 53.0636C239.89 53.0636 240.354 52.8609 240.716 52.4556C241.09 52.0503 241.276 51.4849 241.276 50.7596V46.6636H243.324V54.5996H241.516L241.356 53.2556C241.111 53.7249 240.754 54.0983 240.284 54.3756C239.826 54.6529 239.287 54.7916 238.668 54.7916ZM245.427 54.5996V46.6636H247.235L247.395 48.0076C247.64 47.5383 247.992 47.1649 248.451 46.8876C248.92 46.6103 249.469 46.4716 250.099 46.4716C251.08 46.4716 251.843 46.7809 252.387 47.3996C252.931 48.0183 253.203 48.9249 253.203 50.1196V54.5996H251.155V50.3116C251.155 49.6289 251.016 49.1063 250.739 48.7436C250.461 48.3809 250.029 48.1996 249.443 48.1996C248.867 48.1996 248.392 48.4023 248.019 48.8076C247.656 49.2129 247.475 49.7783 247.475 50.5036V54.5996H245.427ZM258.809 54.7916C258.062 54.7916 257.396 54.6103 256.809 54.2476C256.222 53.8849 255.758 53.3889 255.417 52.7596C255.076 52.1303 254.905 51.4156 254.905 50.6156C254.905 49.8156 255.076 49.1063 255.417 48.4876C255.758 47.8583 256.222 47.3676 256.809 47.0156C257.396 46.6529 258.062 46.4716 258.809 46.4716C259.406 46.4716 259.929 46.5836 260.377 46.8076C260.825 47.0316 261.188 47.3463 261.465 47.7516V43.0796H263.513V54.5996H261.689L261.465 53.4636C261.209 53.8156 260.868 54.1249 260.441 54.3916C260.025 54.6583 259.481 54.7916 258.809 54.7916ZM259.241 52.9996C259.902 52.9996 260.441 52.7809 260.857 52.3436C261.284 51.8956 261.497 51.3249 261.497 50.6316C261.497 49.9383 261.284 49.3729 260.857 48.9356C260.441 48.4876 259.902 48.2636 259.241 48.2636C258.59 48.2636 258.052 48.4823 257.625 48.9196C257.198 49.3569 256.985 49.9223 256.985 50.6156C256.985 51.3089 257.198 51.8796 257.625 52.3276C258.052 52.7756 258.59 52.9996 259.241 52.9996ZM269.455 54.7916C268.655 54.7916 267.945 54.6209 267.327 54.2796C266.708 53.9383 266.223 53.4583 265.871 52.8396C265.519 52.2209 265.343 51.5063 265.343 50.6956C265.343 49.8743 265.513 49.1436 265.855 48.5036C266.207 47.8636 266.687 47.3676 267.295 47.0156C267.913 46.6529 268.639 46.4716 269.471 46.4716C270.249 46.4716 270.937 46.6423 271.535 46.9836C272.132 47.3249 272.596 47.7943 272.927 48.3916C273.268 48.9783 273.439 49.6343 273.439 50.3596C273.439 50.4769 273.433 50.5996 273.423 50.7276C273.423 50.8556 273.417 50.9889 273.407 51.1276H267.375C267.417 51.7463 267.631 52.2316 268.015 52.5836C268.409 52.9356 268.884 53.1116 269.439 53.1116C269.855 53.1116 270.201 53.0209 270.479 52.8396C270.767 52.6476 270.98 52.4023 271.119 52.1036H273.199C273.049 52.6049 272.799 53.0636 272.447 53.4796C272.105 53.8849 271.679 54.2049 271.167 54.4396C270.665 54.6743 270.095 54.7916 269.455 54.7916ZM269.471 48.1356C268.969 48.1356 268.527 48.2796 268.143 48.5676C267.759 48.8449 267.513 49.2716 267.407 49.8476H271.359C271.327 49.3249 271.135 48.9089 270.783 48.5996C270.431 48.2903 269.993 48.1356 269.471 48.1356ZM275.161 54.5996V46.6636H276.985L277.177 48.1516C277.465 47.6396 277.854 47.2343 278.345 46.9356C278.846 46.6263 279.433 46.4716 280.105 46.4716V48.6316H279.529C279.081 48.6316 278.681 48.7009 278.329 48.8396C277.977 48.9783 277.7 49.2183 277.497 49.5596C277.305 49.9009 277.209 50.3756 277.209 50.9836V54.5996H275.161Z" fill="#F94D1C"/>
<defs>
<filter id="filter0_d_1_4939" x="0" y="0" width="408" height="220" filterUnits="userSpaceOnUse" color-interpolation-filters="sRGB">
<feFlood flood-opacity="0" result="BackgroundImageFix"/>
<feColorMatrix in="SourceAlpha" type="matrix" values="0 0 0 0 0 0 0 0 0 0 0 0 0 0 0 0 0 0 127 0" result="hardAlpha"/>
<feOffset dy="18"/>
<feGaussianBlur stdDeviation="10"/>
<feComposite in2="hardAlpha" operator="out"/>
<feColorMatrix type="matrix" values="0 0 0 0 0.172549 0 0 0 0 0.172549 0 0 0 0 0.172549 0 0 0 0.14902 0"/>
<feBlend mode="normal" in2="BackgroundImageFix" result="effect1_dropShadow_1_4939"/>
<feBlend mode="normal" in="SourceGraphic" in2="effect1_dropShadow_1_4939" result="shape"/>
</filter>
</defs>
</svg>
