<svg xmlns="http://www.w3.org/2000/svg" width="94.72" height="14" viewBox="330.641 7356 94.72 14"><g data-name="Star"><g data-name="carbon:star-filled"><path d="m340.276 7360.61 5.085.74-3.68 3.585.87 5.065-4.55-2.39-4.55 2.39.87-5.065-3.68-3.59 5.085-.735L338 7356l2.275 4.61Z" fill="#f94d1c" fill-rule="evenodd" data-name="Vector"/></g><g data-name="carbon:star-filled"><path d="m360.276 7360.61 5.085.74-3.68 3.585.87 5.065-4.55-2.39-4.55 2.39.87-5.065-3.68-3.59 5.085-.735L358 7356l2.275 4.61Z" fill="#f94d1c" fill-rule="evenodd" data-name="Vector"/></g><g data-name="carbon:star-filled"><path d="m380.276 7360.61 5.085.74-3.68 3.585.87 5.065-4.55-2.39-4.55 2.39.87-5.065-3.68-3.59 5.085-.735L378 7356l2.275 4.61Z" fill="#f94d1c" fill-rule="evenodd" data-name="Vector"/></g><g data-name="carbon:star-filled"><path d="m400.276 7360.61 5.085.74-3.68 3.585.87 5.065-4.55-2.39-4.55 2.39.87-5.065-3.68-3.59 5.085-.735L398 7356l2.275 4.61Z" fill="#f94d1c" fill-rule="evenodd" data-name="Vector"/></g><g data-name="carbon:star-filled"><path d="m420.276 7360.61 5.085.74-3.68 3.585.87 5.065-4.55-2.39-4.55 2.39.87-5.065-3.68-3.59 5.085-.735L418 7356l2.275 4.61Z" fill="#f94d1c" fill-rule="evenodd" data-name="Vector"/></g></g></svg>